<svg id="icon_twits" viewBox="0 0 640 520">
  <title>Twitter</title>
  <path d="M0 461.5c10.4 1 20.8 1.6 31.2 1.6 61 0 115.5-18.7 163.4-56.2-28.4-.3-54-9-76.5-26a128 128 0 01-46.3-65c7 1.3 15.1 2 24.5 2 12.1 0 23.7-1.6 34.8-4.7a126.6 126.6 0 01-75.7-45c-20-24.1-29.9-52-29.9-83.5v-1.6a123.2 123.2 0 0059.8 16.2 129 129 0 01-42.9-46.6A128 128 0 0126.5 90c0-23.6 6.1-45.6 18.2-66a369.6 369.6 0 00270.6 137.4 147.7 147.7 0 01-3.6-30.3c0-36 12.8-67 38.5-92.6A126.9 126.9 0 01443.3 0c37.8 0 69.7 13.9 95.8 41.6 30.1-6.2 57.9-17 83.2-32.2a125.2 125.2 0 01-57.2 72.8 268 268 0 0075-20.8 252 252 0 01-65.1 68.2v17.2A376.5 376.5 0 01512.8 353a402 402 0 01-75.2 85.6c-29.1 25-64 44.8-104.9 59.6a383.2 383.2 0 01-131.4 22A368.6 368.6 0 010 461.5z"/>
</svg>
