<svg id="icon_github" viewBox="0 0 511 512">
  <title>Github</title>
  <path d="M0 255.5c0-34.8 6.8-68 20.5-99.3A247.3 247.3 0 01156.2 20.5C187.6 6.8 220.7 0 255.5 0s68 6.8 99.3 20.5a249.4 249.4 0 01135.7 135.7c13.6 32.4 20.5 65.5 20.5 99.3s-6.9 66.9-20.5 99.3a251.3 251.3 0 01-135.7 136.7c-31.4 13.7-64.5 20.5-99.3 20.5s-68-6.8-99.3-20.5A249.1 249.1 0 0120.5 354.8 246.5 246.5 0 010 255.5zm40 0c0 48.1 14.3 91.1 43 129A230.2 230.2 0 00194 464v-41c0-20.5 6.9-35.3 20.5-44.5-6.8-.4-14.8-1.6-24-3.6a121 121 0 01-44.6-16.4c-31-18.8-46.6-52.7-46.6-101.9A92 92 0 01125 191c-7.8-20.2-7-42 2.6-65.6h10.2c3.4 0 7.7.9 12.8 2.6a176 176 0 0144.6 22.5c20.8-5.4 41.3-8.2 61.4-8.2s40.8 2.8 62 8.2a218.2 218.2 0 0137.3-20.5c11-4 18.8-5.8 23.6-5l6.1.4c9.3 23.6 10.1 45.4 2.6 65.6a92 92 0 0125.6 65.5c0 38.2-9.4 67-28.2 86.5a103 103 0 01-40.4 25.6 176 176 0 01-46.6 9.8c14 9.9 21 24.7 21 44.5v41c44-15.7 80.4-42.5 109-80.4 28-37.6 42-80.2 42-128a215.8 215.8 0 00-63-152.6A213.3 213.3 0 00339 57.3 211.5 211.5 0 00255.5 40c-28 0-56 5.8-84 17.4A225 225 0 00103 103a237.5 237.5 0 00-46 68.6c-11.3 27-17 55-17 84z"/>
</svg>
