<svg id="icon_codepen" viewBox="0 0 16 16">
<title>CodePen</title>
<path d="M15.99 5.48l-.01-.06-.01-.03-.02-.05-.02-.03-.02-.05-.02-.03-.03-.04-.02-.03a.4.4 0 00-.04-.04l-.03-.03-.04-.03-.03-.02v-.01L8.37.15a.68.68 0 00-.76 0L.3 5.04a.26.26 0 00-.04.03.4.4 0 00-.04.03l-.02.03-.04.04-.02.03-.03.04-.02.03-.02.04-.02.04-.02.05v.03L0 5.48v.03A.87.87 0 000 5.6v4.97l.01.02c0 .02 0 .04.02.06v.03l.02.05.02.04.02.04.02.03a.16.16 0 00.03.05l.03.03.03.03.03.03.04.03.03.02v.01l7.32 4.88a.69.69 0 00.76 0l7.31-4.88h.01a.26.26 0 00.04-.03.4.4 0 00.03-.03l.03-.03.04-.03.02-.03.03-.04.02-.04.02-.04.02-.04.02-.05v-.03l.02-.06v-.03a.68.68 0 000-.09V5.6a.68.68 0 000-.09v-.03zM8 9.66L5.57 8.04 8 6.4l2.43 1.63L8 9.66zm-.69-4.44L4.33 7.2 1.93 5.6 7.3 2.01v3.2zM3.1 8.04L1.38 9.19v-2.3L3.1 8.04zm1.23.83l2.98 1.99v3.2l-5.38-3.58 2.4-1.61zm4.36 1.99l2.98-2 2.4 1.62-5.38 3.59v-3.21zm4.22-2.82l1.72-1.15v2.3L12.9 8.04zm-1.24-.83l-2.98-2v-3.2l5.38 3.59-2.4 1.6z"/>
</svg>
