<svg viewBox="0 0 1126 156" xmlns="http://www.w3.org/2000/svg" fill="#bddd00">
  <filter id="shadow" x=".3" y=".7" width="1130.7" height="159.4" filterUnits="userSpaceOnUse" color-interpolation-filters="sRGB">
    <feFlood flood-opacity="0" result="bif"/>
    <feBlend in="SourceGraphic" in2="bif" result="s"/>
    <feColorMatrix in="SourceAlpha" values="0 0 0 0 0 0 0 0 0 0 0 0 0 0 0 0 0 0 127 0" result="ha"/>
    <feOffset dx="5" dy="5"/>
    <feGaussianBlur stdDeviation="2.5"/>
    <feComposite in2="ha" operator="arithmetic" k2="-1" k3="1"/>
    <feColorMatrix values="0 0 0 0 0 0 0 0 0 0 0 0 0 0 0 0 0 0 0.75 0"/>
    <feBlend in2="s" result="effect1_innerShadow"/>
  </filter>
  <path filter="url(#shadow)" d="M44.2 21.5v25.8h18.6v20H44.2v53.9c0 4 .9 7 2.6 8.8a9 9 0 006.8 2.6 57.1 57.1 0 0010-1l2.5 20.5a63.8 63.8 0 01-19.6 3c-9.8 0-17.4-2.8-22.8-8.2-5.2-5.4-7.9-14-7.9-25.6v-54H.3v-20h15.5V21.5h28.4zM144 153a53.7 53.7 0 01-3.4-11 36.7 36.7 0 01-29 13 35.2 35.2 0 01-24.7-8.3 30 30 0 01-9-23c0-10 4-17.6 11.8-23 8-5.4 19.6-8.1 35-8.1h14.6V82.2c0-5-1.5-9-4.4-11.8-3-2.8-7.3-4.2-13-4.2A29.6 29.6 0 00107 70l-1.8 11.3H83.7V58a80.3 80.3 0 0118-8.9 65.4 65.4 0 0122-3.6c13.1 0 23.7 3.2 31.9 9.7a32.6 32.6 0 0112.3 27.3v48.2c0 1.5.2 2.8.4 4.1l8.7 1.2V153h-33zm-24.7-19c4.3 0 8.2-1 11.8-2.8a23 23 0 008.2-7V108h-14.6c-6 0-10.6 1.4-13.8 4.3a13.2 13.2 0 00-4.6 10.1c0 3.6 1 6.4 3.4 8.4 2.3 2 5.5 3 9.6 3zm117-.8c5.1 0 9.2-1.5 12.2-4.4 3.1-3 4.6-7 4.6-12H279l.3.7a33.1 33.1 0 01-12 26.8 45.5 45.5 0 01-30.9 10.8c-15.7 0-27.9-5-36.4-15a57 57 0 01-12.8-38.4v-2.9c0-15.6 4.4-28.4 13.1-38.4 8.8-10 21.3-15 37.5-15a65 65 0 0123 3.8 45.3 45.3 0 0116.8 10.7l.4 28.3h-23.1L250 71.7a18.8 18.8 0 00-12.4-4.3c-8 0-13.8 2.9-17 8.7-3.4 5.9-5 13.5-5 22.7v3a49 49 0 004.5 22.8c3 5.7 8.5 8.6 16.1 8.6zm98-111.7v25.8h18.5v20h-18.5v53.9c0 4 .8 7 2.5 8.8a9 9 0 006.9 2.6 57.1 57.1 0 0010-1l2.5 20.5a63.8 63.8 0 01-19.7 3c-9.8 0-17.4-2.8-22.7-8.2-5.3-5.4-8-14-8-25.6v-54h-15.5v-20H306V21.5h28.4zm31.6 114.4l13.8-3V67.6l-15.2-3V47.3h43.7V133l13.7 3v17h-56v-17zM408.2 22h-28.5V.7h28.5V22zm20-4.2V.7H472V133l13.7 3v17h-56v-17l13.8-3V20.8l-15.3-3zm117.5 137.3a47.6 47.6 0 01-36.5-14.7 52.4 52.4 0 01-13.7-37.2v-4a58 58 0 0112.9-38.7 43.1 43.1 0 0134.8-15.1c14.2 0 25.3 4.3 33.2 12.9A49.6 49.6 0 01588.2 93v15.6H525l-.2.5c.5 7 2.8 12.7 7 17.2a22 22 0 0016.8 6.8c6.3 0 11.6-.6 15.8-1.9a75 75 0 0013.6-6l7.7 17.5a56 56 0 01-17 8.7 71.7 71.7 0 01-23 3.6zm-2.5-87.7c-5.3 0-9.5 2-12.5 6s-5 9.4-5.7 16l.3.4h35v-2.5c0-6-1.5-10.9-4.3-14.5-2.8-3.6-7.1-5.4-12.8-5.4zm93.4 85.6h-28.4v-25h28.4v25zm65.7-19.8c5.1 0 9.2-1.5 12.3-4.4 3-3 4.5-7 4.5-12H745l.3.7a33.1 33.1 0 01-12 26.8 45.5 45.5 0 01-30.9 10.8c-15.7 0-27.8-5-36.4-15a57 57 0 01-12.8-38.4v-2.9c0-15.6 4.4-28.4 13.1-38.4 8.8-10 21.3-15 37.5-15a65 65 0 0123 3.8 45.4 45.4 0 0116.9 10.7l.3 28.3h-23.1l-4.7-16.5a18.8 18.8 0 00-12.4-4.3c-8 0-13.8 2.9-17 8.7-3.4 5.9-5 13.5-5 22.7v3a49 49 0 004.5 22.8c3 5.7 8.5 8.6 16.1 8.6zm56-34c0-15.8 4.3-28.7 13-38.7 9-10 21.2-15.1 36.7-15.1 15.6 0 27.8 5 36.6 15 8.9 10 13.3 23 13.3 38.8v2c0 16-4.4 28.9-13.3 39a46 46 0 01-36.4 14.9c-15.7 0-28-5-36.8-15-8.8-10-13.2-23-13.2-38.9v-2zm28.4 2c0 9.7 1.7 17.4 5.1 23.3 3.4 5.8 8.9 8.7 16.4 8.7 7.4 0 12.7-3 16.1-8.8a45.3 45.3 0 005.2-23.2v-2c0-9.4-1.7-17-5.2-23-3.4-5.9-8.9-8.8-16.3-8.8s-12.8 3-16.2 8.8c-3.4 6-5 13.6-5 23v2zM905.2 153h-28.4v-25h28.4v25zm53.9-21.9h29.5l1.1-14h21.8V153h-87.8v-16.8L974 69.4h-25.9l-1 14h-21.9v-36h84.6v16.2L959 131.1zm134 21.9a55 55 0 01-3.4-11 36.7 36.7 0 01-29 13 35.2 35.2 0 01-24.8-8.3 30 30 0 01-9-23c0-10 4-17.6 11.9-23 8-5.4 19.6-8.1 35-8.1h14.5V82.2c0-5-1.5-9-4.4-11.8-3-2.8-7.3-4.2-13-4.2a29.6 29.6 0 00-14.8 3.8l-1.9 11.3h-21.5l.1-23.4a80 80 0 0117.9-8.9 65.4 65.4 0 0122-3.6c13.1 0 23.8 3.2 31.9 9.7a32.6 32.6 0 0112.3 27.3v48.2c0 1.5.2 2.8.4 4.1l8.7 1.2V153h-33zm-24.7-19c4.3 0 8.2-1 11.7-2.8 3.5-1.9 6.2-4.2 8.2-7V108h-14.6c-6 0-10.6 1.4-13.7 4.3a13.2 13.2 0 00-4.7 10.1c0 3.6 1.1 6.4 3.4 8.4s5.6 3 9.7 3z"/>
</svg>
